<?xml version="1.0" encoding="UTF-8"?><svg xmlns="http://www.w3.org/2000/svg" xmlns:xlink="http://www.w3.org/1999/xlink" viewBox="0 0 400 400"><defs><style>.cls-1,.cls-2{fill:none;}.cls-3{fill:#f9f9f9;}.cls-4{fill:#fff;}.cls-2{stroke:#fff;stroke-miterlimit:10;stroke-width:4px;}.cls-5{fill:url(#medalcase-bg);}</style><pattern id="medalcase-bg" x="0" y="0" width="261.28" height="452.56" patternUnits="userSpaceOnUse" viewBox="0 0 261.28 452.56"><rect class="cls-1" y="0" width="261.28" height="452.56"/><polygon class="cls-2" points="156.14 513.26 156.14 391.85 261.28 331.15 366.42 391.85 366.42 513.26 261.28 573.96 156.14 513.26"/><path class="cls-2" d="m261.28,334.04l-102.64,59.26v118.52s102.64,59.26,102.64,59.26l102.64-59.26v-118.52s-102.64-59.26-102.64-59.26m0-5.77l107.64,62.15v124.29s-107.64,62.15-107.64,62.15l-107.64-62.15v-124.29s107.64-62.15,107.64-62.15h0Z"/><polygon class="cls-2" points="178.77 500.24 178.77 404.38 261.78 356.45 344.8 404.38 344.8 500.24 261.78 548.17 178.77 500.24"/><path class="cls-2" d="m261.78,359.34l-80.52,46.49v92.97l80.51,46.49,80.52-46.49v-92.97l-80.51-46.49m0-5.77l85.51,49.37v98.74l-85.52,49.37-85.51-49.37v-98.74l85.52-49.37h0Z"/><polygon class="cls-2" points="-105.14 513.26 -105.14 391.85 0 331.15 105.14 391.85 105.14 513.26 0 573.96 -105.14 513.26"/><path class="cls-2" d="m0,334.04l-102.64,59.26v118.52S0,571.08,0,571.08l102.64-59.26v-118.52S0,334.04,0,334.04M0,328.26l107.64,62.15v124.29S0,576.85,0,576.85l-107.64-62.15v-124.29S0,328.26,0,328.26H0Z"/><polygon class="cls-2" points="-82.52 500.24 -82.52 404.38 .5 356.45 83.52 404.38 83.52 500.24 .5 548.17 -82.52 500.24"/><path class="cls-2" d="m.5,359.34l-80.52,46.49v92.97L.5,545.28l80.52-46.49v-92.97L.5,359.34m0-5.77l85.51,49.37v98.74L.5,551.06l-85.51-49.37v-98.74L.5,353.57H.5Z"/><polygon class="cls-2" points="25.5 286.98 25.5 165.57 130.64 104.87 235.78 165.57 235.78 286.98 130.64 347.68 25.5 286.98"/><path class="cls-2" d="m130.64,107.76l-102.64,59.26v118.52s102.64,59.26,102.64,59.26l102.64-59.26v-118.52s-102.64-59.26-102.64-59.26m0-5.77l107.64,62.15v124.29s-107.64,62.15-107.64,62.15l-107.64-62.15v-124.29s107.64-62.15,107.64-62.15h0Z"/><polygon class="cls-2" points="48.13 273.96 48.13 178.1 131.14 130.18 214.16 178.1 214.16 273.96 131.14 321.89 48.13 273.96"/><path class="cls-2" d="m131.14,133.06l-80.52,46.49v92.97l80.51,46.49,80.52-46.49v-92.97l-80.51-46.49m0-5.77l85.51,49.37v98.74l-85.52,49.37-85.51-49.37v-98.74l85.52-49.37h0Z"/><polygon class="cls-2" points="156.14 60.7 156.14 -60.7 261.28 -121.41 366.42 -60.7 366.42 60.7 261.28 121.41 156.14 60.7"/><path class="cls-2" d="m261.28-118.52l-102.64,59.26V59.26s102.64,59.26,102.64,59.26l102.64-59.26V-59.26s-102.64-59.26-102.64-59.26m0-5.77l107.64,62.15V62.15s-107.64,62.15-107.64,62.15l-107.64-62.15V-62.15s107.64-62.15,107.64-62.15h0Z"/><polygon class="cls-2" points="178.77 47.68 178.77 -48.17 261.78 -96.1 344.8 -48.17 344.8 47.68 261.78 95.61 178.77 47.68"/><path class="cls-2" d="m261.78-93.21l-80.52,46.49V46.24l80.51,46.49,80.52-46.49V-46.73l-80.51-46.49m0-5.77l85.51,49.37V49.13l-85.52,49.37-85.51-49.37V-49.62l85.52-49.37h0Z"/><polygon class="cls-2" points="-105.14 60.7 -105.14 -60.7 0 -121.41 105.14 -60.7 105.14 60.7 0 121.41 -105.14 60.7"/><path class="cls-2" d="m0-118.52l-102.64,59.26V59.26S0,118.52,0,118.52l102.64-59.26V-59.26S0-118.52,0-118.52M0-124.29l107.64,62.15V62.15S0,124.29,0,124.29l-107.64-62.15V-62.15S0-124.29,0-124.29H0Z"/><polygon class="cls-2" points="-82.52 47.68 -82.52 -48.17 .5 -96.1 83.52 -48.17 83.52 47.68 .5 95.61 -82.52 47.68"/><path class="cls-2" d="m.5-93.21l-80.52,46.49V46.24L.5,92.73l80.52-46.49V-46.73L.5-93.21m0-5.77l85.51,49.37V49.13L.5,98.5l-85.51-49.37V-49.62L.5-98.99H.5Z"/></pattern></defs><g id="Layer_1"><polygon class="cls-4" points="30.84 102.5 1.69 52 30.84 1.5 89.16 1.5 118.31 52 89.16 102.5 30.84 102.5"/><path d="m88.29,3l28.29,49-28.29,49H31.71L3.42,52,31.71,3h56.58m1.73-3H29.98L-.04,52l30.02,52h60.04l30.02-52L90.02,0h0Z"/><rect class="cls-3" x="0" width="400" height="400"/></g><g id="Layer_2"><rect class="cls-5" x="0" width="400" height="400"/><path class="cls-5" d="m395,5v390H5V5h390m5-5H0v400h400V0h0Z"/></g></svg>