<?xml version="1.0" encoding="UTF-8"?><svg id="Layer_1" xmlns="http://www.w3.org/2000/svg" xmlns:xlink="http://www.w3.org/1999/xlink" viewBox="0 0 600 600"><defs><style>.cls-1{fill:none;}.cls-2{fill:#f2f2f2;}.cls-3{fill:#fff;}.cls-4{fill:red;}.cls-5{fill:url(#Medacase_BG);}</style><pattern id="Medacase_BG" x="0" y="0" width="224.81" height="328.48" patternTransform="translate(-320.3 -43.12)" patternUnits="userSpaceOnUse" viewBox="0 0 224.81 328.48"><rect class="cls-1" x="0" width="224.81" height="328.48"/><polygon class="cls-2" points="168.21 525.28 254.81 475.28 254.81 375.28 168.21 325.28 81.6 375.28 81.6 475.28 168.21 525.28"/><path class="cls-3" d="m44.1,353.63v143.3s124.1,28.35,124.1,28.35l99-43,25.1,14.65v-143.3s-124.1-71.65-124.1-71.65l-124.1,71.65Zm173.21,100l-49.1,28.35-49.1-28.35v-56.7s49.1-28.35,49.1-28.35l49.1,28.35v56.7Z"/><path class="cls-2" d="m69.1,368.07v114.43s99.1,57.22,99.1,57.22l99.1-57.22v-114.43s-99.1-57.22-99.1-57.22l-99.1,57.22Zm173.21,100l-74.1,42.78-74.1-42.78v-85.57s74.1-42.78,74.1-42.78l74.1,42.78v85.57Z"/><polygon class="cls-2" points="-56.6 525.28 30 475.28 30 375.28 -56.6 325.28 -143.21 375.28 -143.21 475.28 -56.6 525.28"/><path class="cls-3" d="m-180.71,353.63v143.3s124.1,28.35,124.1,28.35l99-43,25.1,14.65v-143.3s-124.1-71.65-124.1-71.65l-124.1,71.65ZM-7.5,453.63l-49.1,28.35-49.1-28.35v-56.7s49.1-28.35,49.1-28.35l49.1,28.35v56.7Z"/><path class="cls-2" d="m-155.71,368.07v114.43s99.1,57.22,99.1,57.22l99.1-57.22v-114.43s-99.1-57.22-99.1-57.22l-99.1,57.22ZM17.5,468.07l-74.1,42.78-74.1-42.78v-85.57s74.1-42.78,74.1-42.78l74.1,42.78v85.57Z"/><polygon class="cls-2" points="281.41 131.68 194.81 181.68 194.81 281.68 281.41 331.68 368.01 281.68 368.01 181.68 281.41 131.68"/><path class="cls-3" d="m405.51,303.33v-143.3l-124.1-28.35-99,43-25.1-14.65v143.3l124.1,71.65,124.1-71.65Zm-173.21-100l49.1-28.35,49.1,28.35v56.7l-49.1,28.35-49.1-28.35v-56.7Z"/><path class="cls-2" d="m380.51,288.9v-114.43l-99.1-57.22-99.1,57.22v114.43l99.1,57.22,99.1-57.22Zm-173.21-100l74.1-42.78,74.1,42.78v85.57l-74.1,42.78-74.1-42.78v-85.57Z"/><polygon class="cls-2" points="56.6 131.68 -30 181.68 -30 281.68 56.6 331.68 143.21 281.68 143.21 181.68 56.6 131.68"/><path class="cls-3" d="m180.71,303.33v-143.3l-124.1-28.35-99,43-25.1-14.65v143.3l124.1,71.65,124.1-71.65ZM7.5,203.33l49.1-28.35,49.1,28.35v56.7l-49.1,28.35-49.1-28.35v-56.7Z"/><path class="cls-2" d="m155.71,288.9v-114.43l-99.1-57.22-99.1,57.22v114.43l99.1,57.22,99.1-57.22ZM-17.5,188.9l74.1-42.78,74.1,42.78v85.57l-74.1,42.78-74.1-42.78v-85.57Z"/><polygon class="cls-2" points="168.21 196.8 254.81 146.8 254.81 46.8 168.21 -3.2 81.6 46.8 81.6 146.8 168.21 196.8"/><path class="cls-3" d="m44.1,25.15v143.3s124.1,28.35,124.1,28.35l99-43,25.1,14.65V25.15s-124.1-71.65-124.1-71.65L44.1,25.15Zm173.21,100l-49.1,28.35-49.1-28.35v-56.7s49.1-28.35,49.1-28.35l49.1,28.35v56.7Z"/><path class="cls-2" d="m69.1,39.58v114.43s99.1,57.22,99.1,57.22l99.1-57.22V39.58s-99.1-57.22-99.1-57.22l-99.1,57.22Zm173.21,100l-74.1,42.78-74.1-42.78V54.02S168.21,11.23,168.21,11.23l74.1,42.78v85.57Z"/><line class="cls-4" x1="56.6" y1="160.61" x2="56.6" y2="113.26"/><rect class="cls-3" x="44.1" y="113.26" width="25" height="47.36"/><line class="cls-4" x1="168.21" y1="217.95" x2="168.21" y2="170.59"/><rect class="cls-3" x="155.71" y="170.59" width="25" height="47.36"/><polygon class="cls-2" points="-56.6 196.8 30 146.8 30 46.8 -56.6 -3.2 -143.21 46.8 -143.21 146.8 -56.6 196.8"/><path class="cls-3" d="m-180.71,25.15v143.3s124.1,28.35,124.1,28.35l99-43,25.1,14.65V25.15S-56.6-46.5-56.6-46.5L-180.71,25.15ZM-7.5,125.15l-49.1,28.35-49.1-28.35v-56.7s49.1-28.35,49.1-28.35L-7.5,68.45v56.7Z"/><path class="cls-2" d="m-155.71,39.58v114.43s99.1,57.22,99.1,57.22l99.1-57.22V39.58S-56.6-17.63-56.6-17.63l-99.1,57.22ZM17.5,139.58l-74.1,42.78-74.1-42.78V54.02S-56.6,11.23-56.6,11.23L17.5,54.02v85.57Z"/><polygon class="cls-2" points="281.41 -196.8 194.81 -146.8 194.81 -46.8 281.41 3.2 368.01 -46.8 368.01 -146.8 281.41 -196.8"/><path class="cls-3" d="m405.51-25.15v-143.3l-124.1-28.35-99,43-25.1-14.65V-25.15l124.1,71.65,124.1-71.65Zm-173.21-100l49.1-28.35,49.1,28.35v56.7l-49.1,28.35-49.1-28.35v-56.7Z"/><path class="cls-2" d="m380.51-39.58v-114.43l-99.1-57.22-99.1,57.22V-39.58l99.1,57.22,99.1-57.22Zm-173.21-100l74.1-42.78,74.1,42.78V-54.02l-74.1,42.78-74.1-42.78v-85.57Z"/><polygon class="cls-2" points="56.6 -196.8 -30 -146.8 -30 -46.8 56.6 3.2 143.21 -46.8 143.21 -146.8 56.6 -196.8"/><path class="cls-3" d="m180.71-25.15v-143.3l-124.1-28.35-99,43-25.1-14.65V-25.15L56.6,46.5,180.71-25.15ZM7.5-125.15l49.1-28.35,49.1,28.35v56.7l-49.1,28.35L7.5-68.45v-56.7Z"/><path class="cls-2" d="m155.71-39.58v-114.43l-99.1-57.22-99.1,57.22V-39.58L56.6,17.63l99.1-57.22ZM-17.5-139.58l74.1-42.78,74.1,42.78V-54.02L56.6-11.23-17.5-54.02v-85.57Z"/></pattern></defs><rect class="cls-5" width="600" height="600"/></svg>