<?xml version="1.0" encoding="utf-8"?>
<!-- Generator: Adobe Illustrator 27.5.0, SVG Export Plug-In . SVG Version: 6.00 Build 0)  -->
<svg version="1.1" id="Layer_1" xmlns="http://www.w3.org/2000/svg" xmlns:xlink="http://www.w3.org/1999/xlink" x="0px" y="0px"
	 viewBox="0 0 1121.1 1326" style="enable-background:new 0 0 1121.1 1326;" xml:space="preserve">
<style type="text/css">
	.st0{fill:#06292B;}
	.st1{fill:#FFFFFF;}
	.st2{fill:#FC4C02;}
</style>
<path class="st0" d="M1104.4,975.1V352.3c0-7.4-3.9-14.3-10.3-18.1L570.8,23.3c-6.6-3.9-14.9-3.9-21.5,0L26,334.2
	c-6.4,3.8-10.3,10.7-10.3,18.1v622.9c0,7.4,3.9,14.3,10.3,18.1l523.3,310.9c6.6,3.9,14.9,3.9,21.5,0l523.3-310.9
	C1100.5,989.4,1104.4,982.6,1104.4,975.1L1104.4,975.1z"/>
<path class="st1" d="M1062.1,950.5V376.9c0-7.1-3.7-13.7-9.8-17.3l-482-286.3c-6.3-3.8-14.2-3.8-20.5,0l-482,286.3
	c-6.1,3.6-9.8,10.2-9.8,17.3v573.7c0,7.1,3.7,13.7,9.8,17.3l482,286.3c6.3,3.8,14.2,3.8,20.5,0l482-286.3
	C1058.4,964.2,1062.1,957.6,1062.1,950.5L1062.1,950.5z"/>
<path class="st2" d="M996.6,912.2V416.4c0-7.1-3.7-13.7-9.8-17.3L570.3,151.7c-6.3-3.8-14.2-3.8-20.5,0L133.3,399.1
	c-6.1,3.6-9.8,10.2-9.8,17.3v495.8c0,7.1,3.7,13.7,9.8,17.3l416.5,247.4c6.3,3.8,14.2,3.8,20.5,0l416.5-247.4
	C992.9,925.8,996.6,919.3,996.6,912.2z"/>
</svg>
