<?xml version="1.0" encoding="UTF-8"?>
<svg id="Layer_1" xmlns="http://www.w3.org/2000/svg" viewBox="0 0 1332.14 1332.14">
    <defs>
        <style>.cls-1{fill:#fff;}</style>
    </defs>
    <path fill="currentColor" stroke="currentColor" d="m1210.46,981.25V358.38c0-7.42-3.91-14.3-10.29-18.09L676.82,29.38c-6.62-3.93-14.87-3.93-21.49,0L131.97,340.29c-6.38,3.79-10.29,10.66-10.29,18.09v622.87c0,7.42,3.91,14.3,10.29,18.09l523.35,310.91c6.62,3.93,14.87,3.93,21.49,0l523.35-310.91c6.38-3.79,10.29-10.66,10.29-18.09Z" />
    <path class="cls-1"
          d="m1168.15,956.64V382.99c0-7.1-3.74-13.67-9.84-17.3L676.34,79.37c-6.33-3.76-14.22-3.76-20.55,0L173.83,365.69c-6.1,3.63-9.84,10.2-9.84,17.3v573.66c0,7.1,3.74,13.67,9.84,17.3l481.97,286.33c6.33,3.76,14.22,3.76,20.55,0l481.97-286.33c6.1-3.63,9.84-10.2,9.84-17.3Z"/>
    <path class="cls-1"
          d="m1102.64,918.29v-495.81c0-7.1-3.74-13.67-9.84-17.3l-416.45-247.4c-6.33-3.76-14.22-3.76-20.55,0l-416.45,247.4c-6.1,3.63-9.84,10.2-9.84,17.3v495.81c0,7.1,3.74,13.67,9.84,17.3l416.45,247.4c6.33,3.76,14.22,3.76,20.55,0l416.45-247.4c6.1-3.63,9.84-10.2,9.84-17.3Z"/>
</svg>
